# xmcd CD database file
#
# Track frame offsets:
#	187
#	21012
#	42212
#
# Disc length: 839 seconds
#
# Revision: 0
# Processed by: cddbd v1.5PL3 Copyright (c) Steve Scherf et al.
# Submitted via: CDex 1.50beta9
#
DISCID=19034503
DTITLE=山田晃士 - ひまわり
DYEAR=1994
DGENRE=J-POP
TTITLE0=ひまわり
TTITLE1=キスをしよう
TTITLE2=ひまわり　カラオケ
EXTD=YEAR: 1994
EXTT0=
EXTT1=
EXTT2=
PLAYORDER=
